<svg width="180" height="101" viewBox="0 0 180 101" fill="none" xmlns="http://www.w3.org/2000/svg">
<path d="M99.1579 29.3109L98.3422 30.5696L99.1579 29.3109ZM122.091 59.9474L120.595 60.0574L122.091 59.9474ZM80.1374 97.4465L80.5848 96.0148L80.1374 97.4465ZM61.0638 50.6203L59.7443 49.9069L61.0638 50.6203ZM138.474 35.6557L139.196 34.3409L138.474 35.6557ZM170.708 79.7168C170.211 80.3795 169.271 80.5136 168.608 80.0165L157.809 71.9148C157.147 71.4177 157.013 70.4774 157.51 69.8148C158.007 69.1521 158.947 69.0179 159.61 69.5151L169.209 76.7166L176.41 67.1177C176.907 66.455 177.848 66.3208 178.51 66.818C179.173 67.3151 179.307 68.2554 178.81 68.918L170.708 79.7168ZM52.9408 6.31151L52.5341 7.75533L52.9408 6.31151ZM169.508 78.8166C168.023 79.0285 168.023 79.0286 168.023 79.0287C168.023 79.0288 168.023 79.0289 168.023 79.0289C168.023 79.0291 168.024 79.0292 168.024 79.0293C168.024 79.0295 168.024 79.0296 168.024 79.0297C168.024 79.0298 168.024 79.0297 168.024 79.0294C168.023 79.0287 168.023 79.0271 168.023 79.0245C168.022 79.0194 168.021 79.0105 168.019 78.9979C168.015 78.9727 168.009 78.9328 168 78.8785C167.982 78.77 167.954 78.6044 167.913 78.386C167.831 77.9491 167.7 77.3012 167.504 76.476L170.423 75.7824C170.631 76.6582 170.772 77.3539 170.862 77.8355C170.907 78.0763 170.939 78.2637 170.96 78.3933C170.971 78.4581 170.979 78.5085 170.984 78.5439C170.987 78.5616 170.989 78.5756 170.991 78.5857C170.991 78.5908 170.992 78.5949 170.992 78.5981C170.993 78.5997 170.993 78.601 170.993 78.6021C170.993 78.6027 170.993 78.6032 170.993 78.6036C170.993 78.6038 170.993 78.604 170.993 78.6042C170.993 78.6043 170.993 78.6044 170.993 78.6045C170.993 78.6046 170.993 78.6047 169.508 78.8166ZM166.021 71.3455C165.507 69.8248 164.873 68.1367 164.094 66.3346L166.848 65.1444C167.662 67.028 168.325 68.7934 168.863 70.3856L166.021 71.3455ZM161.766 61.4991C160.961 59.9895 160.059 58.44 159.048 56.8749L161.568 55.2472C162.627 56.8869 163.572 58.509 164.413 60.0881L161.766 61.4991ZM155.952 52.5059C154.888 51.1356 153.734 49.7706 152.483 48.4268L154.679 46.3827C155.994 47.7948 157.205 49.2283 158.321 50.6662L155.952 52.5059ZM148.66 44.678C147.363 43.5184 145.982 42.3879 144.512 41.2981L146.298 38.8877C147.844 40.0336 149.296 41.2224 150.66 42.4419L148.66 44.678ZM140.071 38.3119C139.318 37.8536 138.545 37.4062 137.752 36.9706L139.196 34.3409C140.028 34.798 140.84 35.2678 141.631 35.7491L140.071 38.3119ZM137.752 36.9706C137.058 36.5893 136.357 36.2205 135.65 35.8642L137.001 33.1854C137.738 33.5575 138.47 33.9426 139.196 34.3409L137.752 36.9706ZM131.336 33.8734C129.873 33.2585 128.391 32.6949 126.894 32.1833L127.865 29.3446C129.426 29.8782 130.971 30.4661 132.498 31.1077L131.336 33.8734ZM122.348 30.7996C120.812 30.3888 119.267 30.0318 117.717 29.7291L118.292 26.7847C119.91 27.1006 121.522 27.4731 123.123 27.9015L122.348 30.7996ZM113.026 28.9806C111.448 28.785 109.87 28.6459 108.297 28.5641L108.453 25.5682C110.098 25.6538 111.747 25.7991 113.395 26.0033L113.026 28.9806ZM103.554 28.4916C101.964 28.5265 100.386 28.6216 98.823 28.7773L98.5254 25.7921C100.166 25.6286 101.822 25.5289 103.488 25.4924L103.554 28.4916ZM94.1371 29.4366C92.5774 29.722 91.0404 30.0715 89.5316 30.4855L88.7379 27.5924C90.3325 27.1549 91.9542 26.7863 93.5971 26.4856L94.1371 29.4366ZM85.0472 31.9395C83.5709 32.4958 82.1299 33.1197 80.7299 33.8119L79.4003 31.1226C80.8913 30.3855 82.4232 29.7223 83.9894 29.1322L85.0472 31.9395ZM76.634 36.1092C75.3123 36.9455 74.0378 37.8518 72.8164 38.8285L70.9427 36.4856C72.2523 35.4383 73.6169 34.4681 75.0299 33.5741L76.634 36.1092ZM69.3331 41.955C68.242 43.0536 67.207 44.2215 66.2338 45.4597L63.8752 43.6058C64.9207 42.2757 66.0325 41.021 67.2045 39.8409L69.3331 41.955ZM63.5564 49.3015C63.1498 49.9623 62.7586 50.6396 62.3833 51.3337L59.7443 49.9069C60.1461 49.1637 60.5653 48.4379 61.0013 47.7293L63.5564 49.3015ZM62.3833 51.3337C62.0211 52.0037 61.6886 52.6835 61.3853 53.3714L58.6402 52.1612C58.9758 51.4002 59.3436 50.6481 59.7443 49.9069L62.3833 51.3337ZM59.8928 57.6516C59.5071 59.1229 59.2389 60.6172 59.0834 62.1217L56.0993 61.8132C56.2702 60.1599 56.5653 58.5142 56.991 56.8907L59.8928 57.6516ZM58.9508 66.6726C59.017 68.1918 59.192 69.7074 59.4706 71.2058L56.5212 71.7543C56.2174 70.1205 56.0261 68.4653 55.9536 66.8032L58.9508 66.6726ZM60.6106 75.6308C61.0901 77.0783 61.6674 78.494 62.3368 79.8643L59.6413 81.1811C58.9128 79.6899 58.2846 78.1495 57.7628 76.5742L60.6106 75.6308ZM64.6159 83.8251C65.4643 85.0912 66.3987 86.2974 67.4133 87.4304L65.1784 89.4318C64.0686 88.1925 63.0485 86.8753 62.1236 85.495L64.6159 83.8251ZM70.6887 90.5939C71.8512 91.5619 73.087 92.4442 74.3906 93.2281L72.8445 95.799C71.4065 94.9343 70.0461 93.9627 68.769 92.8992L70.6887 90.5939ZM78.4477 95.2515C79.1452 95.5327 79.8578 95.7876 80.5848 96.0148L79.6899 98.8782C78.8858 98.6269 78.0976 98.3449 77.3263 98.034L78.4477 95.2515ZM80.5848 96.0148C81.2891 96.2349 81.9948 96.4206 82.7011 96.5731L82.0679 99.5055C81.2736 99.334 80.4805 99.1253 79.6899 98.8782L80.5848 96.0148ZM87.0373 97.1047C88.5013 97.1512 89.9618 97.0663 91.4094 96.8599L91.8329 99.8298C90.2197 100.06 88.5855 100.155 86.942 100.103L87.0373 97.1047ZM95.7012 95.8872C97.0985 95.4527 98.4737 94.909 99.8171 94.2659L101.112 96.9719C99.644 97.6749 98.1337 98.2725 96.5921 98.7519L95.7012 95.8872ZM103.689 92.0826C104.926 91.2755 106.121 90.3844 107.266 89.4188L109.2 91.7124C107.964 92.7546 106.67 93.7191 105.329 94.5947L103.689 92.0826ZM110.509 86.3439C111.529 85.2596 112.49 84.1136 113.384 82.9158L115.788 84.7101C114.826 85.9986 113.792 87.2315 112.695 88.3986L110.509 86.3439ZM115.85 79.1855C116.601 77.8949 117.275 76.5633 117.865 75.2005L120.619 76.3925C119.98 77.8663 119.252 79.3035 118.443 80.694L115.85 79.1855ZM119.379 71.0106C119.794 69.5828 120.115 68.1342 120.333 66.6745L123.3 67.118C123.062 68.7158 122.711 70.2963 122.259 71.8488L119.379 71.0106ZM120.672 62.2641C120.674 61.5285 120.649 60.7926 120.595 60.0574L123.586 59.8374C123.646 60.65 123.674 61.4624 123.672 62.2731L120.672 62.2641ZM120.595 60.0574C120.534 59.2391 120.449 58.4457 120.338 57.6754L123.308 57.2505C123.428 58.0908 123.521 58.9527 123.586 59.8374L120.595 60.0574ZM119.307 53.0366C118.828 51.486 118.232 50.0324 117.528 48.6576L120.199 47.2912C120.98 48.8187 121.642 50.433 122.173 52.1508L119.307 53.0366ZM115.021 44.6353C114.085 43.3734 113.043 42.1695 111.904 41.0062L114.047 38.9072C115.271 40.1565 116.404 41.4638 117.43 42.8478L115.021 44.6353ZM108.338 37.7336C107.121 36.7181 105.829 35.7245 104.471 34.7383L106.233 32.3105C107.635 33.3281 108.981 34.3632 110.26 35.43L108.338 37.7336ZM100.415 31.9302C99.7361 31.478 99.0448 31.025 98.3422 30.5696L99.9737 28.0521C100.685 28.5129 101.386 28.9727 102.078 29.4328L100.415 31.9302ZM98.3422 30.5696C97.6284 30.1071 96.9049 29.6376 96.168 29.1605L97.7984 26.6422C98.5359 27.1197 99.262 27.5909 99.9737 28.0521L98.3422 30.5696ZM91.8185 26.3678C90.3997 25.4675 88.9409 24.5551 87.44 23.6391L89.0029 21.0783C90.5219 22.0054 91.9959 22.9273 93.4259 23.8347L91.8185 26.3678ZM83.0157 21.0079C81.5571 20.1647 80.0618 19.3257 78.5286 18.4977L79.9542 15.858C81.5153 16.7011 83.036 17.5544 84.5171 18.4106L83.0157 21.0079ZM73.9712 16.1316C72.4617 15.3801 70.9179 14.6443 69.3388 13.9296L70.5758 11.1965C72.1905 11.9273 73.7676 12.6791 75.3081 13.446L73.9712 16.1316ZM64.63 11.9097C63.0681 11.2768 61.4736 10.6678 59.8458 10.0877L60.8529 7.26182C62.5225 7.85683 64.1568 8.481 65.7566 9.12925L64.63 11.9097ZM54.9896 8.47769C54.179 8.22906 53.3605 7.98809 52.5341 7.75533L53.3474 4.86769C54.1963 5.1068 55.0369 5.35427 55.8693 5.60956L54.9896 8.47769ZM52.5341 7.75533C51.7261 7.52775 50.8943 7.31119 50.0418 7.10517L50.7464 4.18911C51.6323 4.40318 52.5005 4.62914 53.3474 4.86769L52.5341 7.75533ZM44.9588 6.03825C43.2815 5.73302 41.5591 5.46062 39.8114 5.21774L40.2244 2.2463C42.0083 2.49422 43.7725 2.7731 45.4959 3.08672L44.9588 6.03825ZM34.6212 4.58585C32.8801 4.40156 31.1354 4.24267 29.4061 4.10595L29.6425 1.11528C31.3957 1.25389 33.167 1.41516 34.937 1.60251L34.6212 4.58585ZM24.1726 3.75273C22.3771 3.65126 20.6226 3.57142 18.9323 3.50915L19.0428 0.511181C20.7509 0.574107 22.5251 0.654837 24.3419 0.757508L24.1726 3.75273ZM13.6881 3.36337C11.7782 3.32713 10.0107 3.31164 8.43188 3.30886L8.43716 0.30887C10.0315 0.311676 11.8164 0.327312 13.745 0.363905L13.6881 3.36337ZM3.17493 3.34745C2.34471 3.3617 1.69488 3.37724 1.25359 3.38918C1.03296 3.39515 0.864465 3.40022 0.751634 3.40378C0.695225 3.40556 0.652736 3.40696 0.624594 3.40791C0.61053 3.40838 0.600049 3.40874 0.593212 3.40898C0.589793 3.4091 0.587285 3.40919 0.585704 3.40924C0.584905 3.40927 0.584346 3.40929 0.584011 3.4093C0.58385 3.4093 0.583739 3.40931 0.58369 3.40931C0.583659 3.40931 0.583644 3.40931 0.583644 3.40931C0.583658 3.40931 0.58366 3.40931 0.58366 3.40931C0.583676 3.40931 0.583707 3.40931 0.530091 1.91027C0.476475 0.411229 0.476506 0.411226 0.476538 0.411225C0.476554 0.411224 0.476586 0.411224 0.476618 0.411222C0.476682 0.411219 0.476761 0.411215 0.476842 0.411215C0.477018 0.41121 0.477257 0.411201 0.47756 0.411188C0.478151 0.411167 0.478966 0.41114 0.48002 0.411102C0.482128 0.411026 0.485147 0.410921 0.489078 0.410786C0.496953 0.410511 0.508473 0.410116 0.523592 0.409607C0.553844 0.408585 0.598475 0.407115 0.657058 0.405267C0.774224 0.401571 0.9472 0.39637 1.17246 0.390275C1.62297 0.378087 2.28269 0.362327 3.12342 0.347891L3.17493 3.34745Z" fill="#F8D1B5"/>
</svg>
