<svg width="1125" height="567" viewBox="0 0 1125 567" fill="none" xmlns="http://www.w3.org/2000/svg">
<g clip-path="url(#clip0_348_5)">
<g opacity="0.18">
<mask id="mask0_348_5" style="mask-type:alpha" maskUnits="userSpaceOnUse" x="0" y="0" width="1315" height="857">
<rect width="1315" height="857" fill="url(#paint0_linear_348_5)"/>
</mask>
<g mask="url(#mask0_348_5)">
<line x1="20.1301" y1="8" x2="20.13" y2="857" stroke="#A7A7A7"/>
<line x1="44.668" y1="8" x2="44.6679" y2="857" stroke="#A7A7A7"/>
<line x1="69.2052" y1="8" x2="69.2052" y2="857" stroke="#A7A7A7"/>
<line x1="93.7432" y1="8" x2="93.7431" y2="857" stroke="#A7A7A7"/>
<line x1="118.28" y1="8" x2="118.28" y2="857" stroke="#A7A7A7"/>
<line x1="142.818" y1="8" x2="142.818" y2="857" stroke="#A7A7A7"/>
<line x1="167.355" y1="8" x2="167.355" y2="857" stroke="#A7A7A7"/>
<line x1="191.893" y1="8" x2="191.893" y2="857" stroke="#A7A7A7"/>
<line x1="216.431" y1="8" x2="216.431" y2="857" stroke="#A7A7A7"/>
<line x1="240.968" y1="8" x2="240.968" y2="857" stroke="#A7A7A7"/>
<line x1="265.506" y1="8" x2="265.506" y2="857" stroke="#A7A7A7"/>
<line x1="290.043" y1="8" x2="290.043" y2="857" stroke="#A7A7A7"/>
<line x1="314.581" y1="8" x2="314.581" y2="857" stroke="#A7A7A7"/>
<line x1="339.118" y1="8" x2="339.118" y2="857" stroke="#A7A7A7"/>
<line x1="363.656" y1="8" x2="363.656" y2="857" stroke="#A7A7A7"/>
<line x1="388.193" y1="8" x2="388.193" y2="857" stroke="#A7A7A7"/>
<line x1="412.731" y1="8" x2="412.731" y2="857" stroke="#A7A7A7"/>
<line x1="437.269" y1="8" x2="437.269" y2="857" stroke="#A7A7A7"/>
<line x1="461.807" y1="8" x2="461.807" y2="857" stroke="#A7A7A7"/>
<line x1="486.344" y1="8" x2="486.344" y2="857" stroke="#A7A7A7"/>
<line x1="510.882" y1="8" x2="510.882" y2="857" stroke="#A7A7A7"/>
<line x1="535.419" y1="8" x2="535.419" y2="857" stroke="#A7A7A7"/>
<line x1="559.957" y1="8" x2="559.957" y2="857" stroke="#A7A7A7"/>
<line x1="584.494" y1="8" x2="584.494" y2="857" stroke="#A7A7A7"/>
<line x1="609.032" y1="8" x2="609.032" y2="857" stroke="#A7A7A7"/>
<line x1="633.569" y1="8" x2="633.569" y2="857" stroke="#A7A7A7"/>
<line x1="658.107" y1="8" x2="658.107" y2="857" stroke="#A7A7A7"/>
<line x1="682.645" y1="8" x2="682.644" y2="857" stroke="#A7A7A7"/>
<line x1="707.182" y1="8" x2="707.182" y2="857" stroke="#A7A7A7"/>
<line x1="731.72" y1="8" x2="731.72" y2="857" stroke="#A7A7A7"/>
<line x1="756.257" y1="8" x2="756.257" y2="857" stroke="#A7A7A7"/>
<line x1="780.795" y1="8" x2="780.795" y2="857" stroke="#A7A7A7"/>
<line x1="805.332" y1="8" x2="805.332" y2="857" stroke="#A7A7A7"/>
<line x1="829.87" y1="8" x2="829.87" y2="857" stroke="#A7A7A7"/>
<line x1="854.407" y1="8" x2="854.407" y2="857" stroke="#A7A7A7"/>
<line x1="878.945" y1="8" x2="878.945" y2="857" stroke="#A7A7A7"/>
<line x1="903.482" y1="8" x2="903.482" y2="857" stroke="#A7A7A7"/>
<line x1="928.021" y1="8" x2="928.02" y2="857" stroke="#A7A7A7"/>
<line x1="952.558" y1="8" x2="952.558" y2="857" stroke="#A7A7A7"/>
<line x1="977.096" y1="8" x2="977.096" y2="857" stroke="#A7A7A7"/>
<line x1="1001.63" y1="8" x2="1001.63" y2="857" stroke="#A7A7A7"/>
<line x1="1026.17" y1="8" x2="1026.17" y2="857" stroke="#A7A7A7"/>
<line x1="1050.71" y1="8" x2="1050.71" y2="857" stroke="#A7A7A7"/>
<line x1="1075.25" y1="8" x2="1075.25" y2="857" stroke="#A7A7A7"/>
<line x1="1099.78" y1="8" x2="1099.78" y2="857" stroke="#A7A7A7"/>
<line x1="1124.32" y1="8" x2="1124.32" y2="857" stroke="#A7A7A7"/>
<line x1="1315.21" y1="28.1301" x2="-6.87075e-08" y2="28.13" stroke="#A7A7A7"/>
<line x1="1315.21" y1="52.668" x2="-6.87075e-08" y2="52.6679" stroke="#A7A7A7"/>
<line x1="1315.21" y1="77.2052" x2="-6.87075e-08" y2="77.2051" stroke="#A7A7A7"/>
<line x1="1315.21" y1="101.743" x2="-6.87075e-08" y2="101.743" stroke="#A7A7A7"/>
<line x1="1315.21" y1="126.28" x2="-6.87075e-08" y2="126.28" stroke="#A7A7A7"/>
<line x1="1315.21" y1="150.818" x2="-6.87075e-08" y2="150.818" stroke="#A7A7A7"/>
<line x1="1315.21" y1="175.355" x2="-6.87075e-08" y2="175.355" stroke="#A7A7A7"/>
<line x1="1315.21" y1="199.893" x2="-6.87075e-08" y2="199.893" stroke="#A7A7A7"/>
<line x1="1315.21" y1="224.431" x2="-6.87075e-08" y2="224.431" stroke="#A7A7A7"/>
<line x1="1315.21" y1="248.968" x2="-6.87075e-08" y2="248.968" stroke="#A7A7A7"/>
<line x1="1315.21" y1="273.506" x2="-6.87075e-08" y2="273.506" stroke="#A7A7A7"/>
<line x1="1315.21" y1="298.043" x2="-6.87075e-08" y2="298.043" stroke="#A7A7A7"/>
<line x1="1315.21" y1="322.581" x2="-6.87075e-08" y2="322.581" stroke="#A7A7A7"/>
<line x1="1315.21" y1="347.118" x2="-6.87075e-08" y2="347.118" stroke="#A7A7A7"/>
<line x1="1315.21" y1="371.656" x2="-6.87075e-08" y2="371.656" stroke="#A7A7A7"/>
<line x1="1315.21" y1="396.193" x2="-6.87075e-08" y2="396.193" stroke="#A7A7A7"/>
<line x1="1315.21" y1="420.731" x2="-6.87075e-08" y2="420.731" stroke="#A7A7A7"/>
<line x1="1315.21" y1="445.269" x2="-6.87075e-08" y2="445.268" stroke="#A7A7A7"/>
<line x1="1315.21" y1="469.807" x2="-6.87075e-08" y2="469.807" stroke="#A7A7A7"/>
<line x1="1315.21" y1="494.344" x2="-6.87075e-08" y2="494.344" stroke="#A7A7A7"/>
<line x1="1315.21" y1="518.882" x2="-6.87075e-08" y2="518.882" stroke="#A7A7A7"/>
<line x1="1315.21" y1="543.419" x2="-6.87075e-08" y2="543.419" stroke="#A7A7A7"/>
</g>
</g>
</g>
<defs>
<linearGradient id="paint0_linear_348_5" x1="1303" y1="125.5" x2="765" y2="529.5" gradientUnits="userSpaceOnUse">
<stop stop-color="#D9D9D9"/>
<stop offset="1" stop-color="#D9D9D9" stop-opacity="0"/>
</linearGradient>
<clipPath id="clip0_348_5">
<rect width="1125" height="567" fill="white"/>
</clipPath>
</defs>
</svg>
